<mxfile host="app.diagrams.net" agent="Mozilla/5.0 (X11; Ubuntu; Linux x86_64; rv:132.0) Gecko/20100101 Firefox/132.0" version="25.0.1">
  <diagram name="Page-1" id="cdBbadpwBqb2-TS0l5zY">
    <mxGraphModel dx="1368" dy="790" grid="1" gridSize="10" guides="1" tooltips="1" connect="1" arrows="1" fold="1" page="1" pageScale="1" pageWidth="850" pageHeight="1100" math="1" shadow="0">
      <root>
        <mxCell id="0" />
        <mxCell id="1" parent="0" />
        <mxCell id="n1YZ1JOzVix0Rl63Bj6r-97" value="&lt;font style=&quot;font-size: 16px;&quot;&gt;\(\delta\)&lt;/font&gt;" style="text;html=1;align=center;verticalAlign=middle;whiteSpace=wrap;rounded=0;" parent="1" vertex="1">
          <mxGeometry x="618" y="299" width="60" height="30" as="geometry" />
        </mxCell>
        <mxCell id="n1YZ1JOzVix0Rl63Bj6r-101" value="&lt;font style=&quot;font-size: 16px;&quot;&gt;\(TF_1\)&lt;/font&gt;" style="text;html=1;align=center;verticalAlign=middle;whiteSpace=wrap;rounded=0;strokeColor=default;" parent="1" vertex="1">
          <mxGeometry x="410" y="310" width="40" height="35" as="geometry" />
        </mxCell>
        <mxCell id="n1YZ1JOzVix0Rl63Bj6r-102" value="" style="swimlane;startSize=0;" parent="1" vertex="1">
          <mxGeometry x="658" y="260" width="445" height="120" as="geometry" />
        </mxCell>
        <mxCell id="n1YZ1JOzVix0Rl63Bj6r-103" value="" style="swimlane;startSize=0;" parent="n1YZ1JOzVix0Rl63Bj6r-102" vertex="1">
          <mxGeometry x="110" y="25" width="335" height="80" as="geometry" />
        </mxCell>
        <mxCell id="n1YZ1JOzVix0Rl63Bj6r-104" value="\[&lt;br&gt;f(e_{\dot{\phi}}) =&lt;br&gt;\begin{cases}&lt;br&gt;&amp;nbsp;&amp;nbsp;&amp;nbsp; -\delta_1, -\delta_2, -\delta_3, -\delta_4 &amp;amp; \text{if } e_{\dot{\phi}} \geq th, \\&lt;br&gt;&amp;nbsp;&amp;nbsp;&amp;nbsp; \{\delta_i(t-1)\}_{i=1}^4 &amp;amp; \text{if } -th &amp;lt; e_{\dot{\phi}} &amp;lt; th, \\&lt;br&gt;&amp;nbsp;&amp;nbsp;&amp;nbsp; \delta_1, +\delta_2, +\delta_3, +\delta_4 &amp;amp; \text{if } e_{\dot{\phi}} \leq -th.&lt;br&gt;\end{cases}&lt;br&gt;\]&lt;div&gt;&lt;br&gt;&lt;/div&gt;" style="text;html=1;align=center;verticalAlign=middle;whiteSpace=wrap;rounded=0;" parent="n1YZ1JOzVix0Rl63Bj6r-103" vertex="1">
          <mxGeometry x="-35" y="25" width="370" height="55" as="geometry" />
        </mxCell>
        <mxCell id="n1YZ1JOzVix0Rl63Bj6r-128" style="edgeStyle=orthogonalEdgeStyle;rounded=0;orthogonalLoop=1;jettySize=auto;html=1;entryX=0;entryY=0.5;entryDx=0;entryDy=0;" parent="n1YZ1JOzVix0Rl63Bj6r-102" source="n1YZ1JOzVix0Rl63Bj6r-106" target="n1YZ1JOzVix0Rl63Bj6r-103" edge="1">
          <mxGeometry relative="1" as="geometry" />
        </mxCell>
        <mxCell id="n1YZ1JOzVix0Rl63Bj6r-106" value="&lt;font style=&quot;font-size: 19px;&quot;&gt;\(\frac{1}{\tau s + 1}\)&lt;/font&gt;" style="text;html=1;align=center;verticalAlign=middle;whiteSpace=wrap;rounded=0;strokeColor=default;" parent="n1YZ1JOzVix0Rl63Bj6r-102" vertex="1">
          <mxGeometry x="20" y="35" width="70" height="60" as="geometry" />
        </mxCell>
        <mxCell id="n1YZ1JOzVix0Rl63Bj6r-107" value="&lt;font style=&quot;font-size: 16px;&quot;&gt;Actuation System&lt;/font&gt;" style="text;html=1;align=center;verticalAlign=middle;resizable=0;points=[];autosize=1;strokeColor=none;fillColor=none;" parent="n1YZ1JOzVix0Rl63Bj6r-102" vertex="1">
          <mxGeometry x="130" width="150" height="30" as="geometry" />
        </mxCell>
        <mxCell id="5-_XmHX38aetOl3ovNY6-2" value="&lt;div&gt;&lt;font style=&quot;font-size: 16px;&quot;&gt;\(\dot{\phi}_a\)&lt;/font&gt;&lt;/div&gt;" style="text;html=1;align=center;verticalAlign=middle;whiteSpace=wrap;rounded=0;" vertex="1" parent="1">
          <mxGeometry x="260" y="322" width="20" height="30" as="geometry" />
        </mxCell>
        <mxCell id="5-_XmHX38aetOl3ovNY6-3" style="edgeStyle=orthogonalEdgeStyle;rounded=0;orthogonalLoop=1;jettySize=auto;html=1;" edge="1" parent="1" source="5-_XmHX38aetOl3ovNY6-4">
          <mxGeometry relative="1" as="geometry">
            <mxPoint x="257" y="340" as="targetPoint" />
          </mxGeometry>
        </mxCell>
        <mxCell id="5-_XmHX38aetOl3ovNY6-4" value="&lt;font style=&quot;font-size: 14px;&quot;&gt;INS&lt;/font&gt;" style="text;html=1;align=center;verticalAlign=middle;whiteSpace=wrap;rounded=0;" vertex="1" parent="1">
          <mxGeometry x="200" y="325" width="30" height="30" as="geometry" />
        </mxCell>
        <mxCell id="5-_XmHX38aetOl3ovNY6-17" style="edgeStyle=orthogonalEdgeStyle;rounded=0;orthogonalLoop=1;jettySize=auto;html=1;entryX=0;entryY=0.5;entryDx=0;entryDy=0;" edge="1" parent="1" source="5-_XmHX38aetOl3ovNY6-5" target="n1YZ1JOzVix0Rl63Bj6r-101">
          <mxGeometry relative="1" as="geometry">
            <mxPoint x="400" y="331" as="targetPoint" />
          </mxGeometry>
        </mxCell>
        <mxCell id="5-_XmHX38aetOl3ovNY6-18" value="&lt;div&gt;&lt;font style=&quot;font-size: 16px;&quot;&gt;\(e_{\dot{\phi}}\)&lt;/font&gt;&lt;/div&gt;" style="edgeLabel;html=1;align=center;verticalAlign=middle;resizable=0;points=[];" vertex="1" connectable="0" parent="5-_XmHX38aetOl3ovNY6-17">
          <mxGeometry x="-0.0208" y="1" relative="1" as="geometry">
            <mxPoint as="offset" />
          </mxGeometry>
        </mxCell>
        <mxCell id="5-_XmHX38aetOl3ovNY6-5" value="\(\sum\)" style="ellipse;whiteSpace=wrap;html=1;aspect=fixed;" vertex="1" parent="1">
          <mxGeometry x="320" y="307.5" width="40" height="40" as="geometry" />
        </mxCell>
        <mxCell id="5-_XmHX38aetOl3ovNY6-11" style="edgeStyle=orthogonalEdgeStyle;rounded=0;orthogonalLoop=1;jettySize=auto;html=1;" edge="1" parent="1" source="5-_XmHX38aetOl3ovNY6-8">
          <mxGeometry relative="1" as="geometry">
            <mxPoint x="678" y="327.5" as="targetPoint" />
          </mxGeometry>
        </mxCell>
        <mxCell id="5-_XmHX38aetOl3ovNY6-8" value="&lt;font style=&quot;font-size: 16px;&quot;&gt;\(TF_3\)&lt;/font&gt;" style="text;html=1;align=center;verticalAlign=middle;whiteSpace=wrap;rounded=0;strokeColor=default;" vertex="1" parent="1">
          <mxGeometry x="600" y="310" width="40" height="35" as="geometry" />
        </mxCell>
        <mxCell id="5-_XmHX38aetOl3ovNY6-30" style="edgeStyle=orthogonalEdgeStyle;rounded=0;orthogonalLoop=1;jettySize=auto;html=1;entryX=0.5;entryY=0;entryDx=0;entryDy=0;" edge="1" parent="1" source="5-_XmHX38aetOl3ovNY6-20" target="5-_XmHX38aetOl3ovNY6-22">
          <mxGeometry relative="1" as="geometry" />
        </mxCell>
        <mxCell id="5-_XmHX38aetOl3ovNY6-31" value="&lt;font style=&quot;font-size: 16px;&quot;&gt;\(\phi_e\)&lt;/font&gt;" style="edgeLabel;html=1;align=center;verticalAlign=middle;resizable=0;points=[];" vertex="1" connectable="0" parent="5-_XmHX38aetOl3ovNY6-30">
          <mxGeometry x="-0.3333" relative="1" as="geometry">
            <mxPoint as="offset" />
          </mxGeometry>
        </mxCell>
        <mxCell id="5-_XmHX38aetOl3ovNY6-20" value="\(\sum\)" style="ellipse;whiteSpace=wrap;html=1;aspect=fixed;" vertex="1" parent="1">
          <mxGeometry x="320" y="217.5" width="40" height="40" as="geometry" />
        </mxCell>
        <mxCell id="5-_XmHX38aetOl3ovNY6-39" style="edgeStyle=orthogonalEdgeStyle;rounded=0;orthogonalLoop=1;jettySize=auto;html=1;entryX=0.5;entryY=0;entryDx=0;entryDy=0;" edge="1" parent="1" source="5-_XmHX38aetOl3ovNY6-22" target="5-_XmHX38aetOl3ovNY6-5">
          <mxGeometry relative="1" as="geometry" />
        </mxCell>
        <mxCell id="5-_XmHX38aetOl3ovNY6-40" value="&lt;font style=&quot;font-size: 16px;&quot;&gt;\(\dot{\phi}_d\)&lt;/font&gt;" style="edgeLabel;html=1;align=center;verticalAlign=middle;resizable=0;points=[];" vertex="1" connectable="0" parent="5-_XmHX38aetOl3ovNY6-39">
          <mxGeometry x="-0.4159" y="1" relative="1" as="geometry">
            <mxPoint as="offset" />
          </mxGeometry>
        </mxCell>
        <mxCell id="5-_XmHX38aetOl3ovNY6-22" value="&lt;font style=&quot;font-size: 19px;&quot;&gt;&lt;b&gt;&lt;font&gt;\(\times\)&lt;/font&gt;&lt;/b&gt;&lt;/font&gt;" style="ellipse;whiteSpace=wrap;html=1;aspect=fixed;" vertex="1" parent="1">
          <mxGeometry x="384.99999999999994" y="257.5" width="40" height="40" as="geometry" />
        </mxCell>
        <mxCell id="5-_XmHX38aetOl3ovNY6-26" style="edgeStyle=orthogonalEdgeStyle;rounded=0;orthogonalLoop=1;jettySize=auto;html=1;" edge="1" parent="1" source="5-_XmHX38aetOl3ovNY6-23">
          <mxGeometry relative="1" as="geometry">
            <mxPoint x="320" y="237.5" as="targetPoint" />
          </mxGeometry>
        </mxCell>
        <mxCell id="5-_XmHX38aetOl3ovNY6-27" value="&lt;font style=&quot;font-size: 16px;&quot;&gt;\(\phi_d\)&lt;/font&gt;" style="edgeLabel;html=1;align=center;verticalAlign=middle;resizable=0;points=[];" vertex="1" connectable="0" parent="5-_XmHX38aetOl3ovNY6-26">
          <mxGeometry x="-0.1325" y="-1" relative="1" as="geometry">
            <mxPoint as="offset" />
          </mxGeometry>
        </mxCell>
        <mxCell id="5-_XmHX38aetOl3ovNY6-23" value="\(Atan2\)" style="text;html=1;align=center;verticalAlign=middle;whiteSpace=wrap;rounded=0;strokeColor=default;" vertex="1" parent="1">
          <mxGeometry x="182.5" y="220" width="65" height="35" as="geometry" />
        </mxCell>
        <mxCell id="5-_XmHX38aetOl3ovNY6-24" value="" style="endArrow=classic;html=1;rounded=0;exitX=0.5;exitY=0;exitDx=0;exitDy=0;entryX=0.5;entryY=1;entryDx=0;entryDy=0;" edge="1" parent="1" source="5-_XmHX38aetOl3ovNY6-4" target="5-_XmHX38aetOl3ovNY6-23">
          <mxGeometry width="50" height="50" relative="1" as="geometry">
            <mxPoint x="210" y="320" as="sourcePoint" />
            <mxPoint x="215" y="260" as="targetPoint" />
          </mxGeometry>
        </mxCell>
        <mxCell id="5-_XmHX38aetOl3ovNY6-25" value="&lt;font style=&quot;font-size: 14px;&quot;&gt;\(G_x \text{, } G_y \)&lt;/font&gt;" style="edgeLabel;html=1;align=center;verticalAlign=middle;resizable=0;points=[];" vertex="1" connectable="0" parent="5-_XmHX38aetOl3ovNY6-24">
          <mxGeometry x="0.0619" relative="1" as="geometry">
            <mxPoint as="offset" />
          </mxGeometry>
        </mxCell>
        <mxCell id="5-_XmHX38aetOl3ovNY6-28" value="" style="endArrow=classic;html=1;rounded=0;exitX=0;exitY=0.5;exitDx=0;exitDy=0;entryX=0.5;entryY=0;entryDx=0;entryDy=0;" edge="1" parent="1" source="5-_XmHX38aetOl3ovNY6-4" target="5-_XmHX38aetOl3ovNY6-20">
          <mxGeometry width="50" height="50" relative="1" as="geometry">
            <mxPoint x="90" y="320" as="sourcePoint" />
            <mxPoint x="330" y="200" as="targetPoint" />
            <Array as="points">
              <mxPoint x="170" y="340" />
              <mxPoint x="170" y="200" />
              <mxPoint x="340" y="200" />
            </Array>
          </mxGeometry>
        </mxCell>
        <mxCell id="5-_XmHX38aetOl3ovNY6-29" value="&lt;font style=&quot;font-size: 16px;&quot;&gt;\(\phi_a\)&lt;/font&gt;" style="edgeLabel;html=1;align=center;verticalAlign=middle;resizable=0;points=[];" vertex="1" connectable="0" parent="5-_XmHX38aetOl3ovNY6-28">
          <mxGeometry x="0.5711" relative="1" as="geometry">
            <mxPoint as="offset" />
          </mxGeometry>
        </mxCell>
        <mxCell id="5-_XmHX38aetOl3ovNY6-32" value="" style="endArrow=classic;html=1;rounded=0;entryX=1;entryY=0.5;entryDx=0;entryDy=0;" edge="1" parent="1" target="5-_XmHX38aetOl3ovNY6-22">
          <mxGeometry width="50" height="50" relative="1" as="geometry">
            <mxPoint x="450" y="190" as="sourcePoint" />
            <mxPoint x="550" y="190" as="targetPoint" />
            <Array as="points">
              <mxPoint x="450" y="278" />
            </Array>
          </mxGeometry>
        </mxCell>
        <mxCell id="5-_XmHX38aetOl3ovNY6-33" value="&lt;font style=&quot;font-size: 16px;&quot;&gt;\(k_\phi\)&lt;/font&gt;" style="edgeLabel;html=1;align=center;verticalAlign=middle;resizable=0;points=[];" vertex="1" connectable="0" parent="5-_XmHX38aetOl3ovNY6-32">
          <mxGeometry x="-0.193" relative="1" as="geometry">
            <mxPoint as="offset" />
          </mxGeometry>
        </mxCell>
        <mxCell id="5-_XmHX38aetOl3ovNY6-35" value="" style="endArrow=classic;html=1;rounded=0;entryX=0;entryY=0.5;entryDx=0;entryDy=0;" edge="1" parent="1" target="5-_XmHX38aetOl3ovNY6-5">
          <mxGeometry width="50" height="50" relative="1" as="geometry">
            <mxPoint x="282" y="340" as="sourcePoint" />
            <mxPoint x="295" y="343" as="targetPoint" />
            <Array as="points">
              <mxPoint x="300" y="340" />
              <mxPoint x="300" y="327" />
            </Array>
          </mxGeometry>
        </mxCell>
        <mxCell id="5-_XmHX38aetOl3ovNY6-41" value="" style="endArrow=classic;html=1;rounded=0;entryX=0.148;entryY=0.99;entryDx=0;entryDy=0;entryPerimeter=0;" edge="1" parent="1" target="n1YZ1JOzVix0Rl63Bj6r-104">
          <mxGeometry width="50" height="50" relative="1" as="geometry">
            <mxPoint x="390" y="340" as="sourcePoint" />
            <mxPoint x="820" y="390" as="targetPoint" />
            <Array as="points">
              <mxPoint x="390" y="390" />
              <mxPoint x="788" y="390" />
            </Array>
          </mxGeometry>
        </mxCell>
        <mxCell id="5-_XmHX38aetOl3ovNY6-43" value="" style="endArrow=classic;html=1;rounded=0;exitX=1;exitY=0.5;exitDx=0;exitDy=0;entryX=0;entryY=0.5;entryDx=0;entryDy=0;" edge="1" parent="1" source="n1YZ1JOzVix0Rl63Bj6r-101" target="5-_XmHX38aetOl3ovNY6-46">
          <mxGeometry width="50" height="50" relative="1" as="geometry">
            <mxPoint x="492" y="401" as="sourcePoint" />
            <mxPoint x="490" y="260" as="targetPoint" />
          </mxGeometry>
        </mxCell>
        <mxCell id="5-_XmHX38aetOl3ovNY6-48" value="&lt;font style=&quot;font-size: 16px;&quot;&gt;\(m_x\)&lt;/font&gt;" style="edgeLabel;html=1;align=center;verticalAlign=middle;resizable=0;points=[];" vertex="1" connectable="0" parent="5-_XmHX38aetOl3ovNY6-43">
          <mxGeometry x="-0.0303" y="2" relative="1" as="geometry">
            <mxPoint as="offset" />
          </mxGeometry>
        </mxCell>
        <mxCell id="5-_XmHX38aetOl3ovNY6-47" style="edgeStyle=orthogonalEdgeStyle;rounded=0;orthogonalLoop=1;jettySize=auto;html=1;entryX=0;entryY=0.5;entryDx=0;entryDy=0;" edge="1" parent="1" source="5-_XmHX38aetOl3ovNY6-46" target="5-_XmHX38aetOl3ovNY6-8">
          <mxGeometry relative="1" as="geometry" />
        </mxCell>
        <mxCell id="5-_XmHX38aetOl3ovNY6-49" value="&lt;font style=&quot;font-size: 16px;&quot;&gt;\(F_{Roll}\)&lt;/font&gt;" style="edgeLabel;html=1;align=center;verticalAlign=middle;resizable=0;points=[];" vertex="1" connectable="0" parent="5-_XmHX38aetOl3ovNY6-47">
          <mxGeometry x="-0.15" y="1" relative="1" as="geometry">
            <mxPoint as="offset" />
          </mxGeometry>
        </mxCell>
        <mxCell id="5-_XmHX38aetOl3ovNY6-46" value="&lt;font style=&quot;font-size: 16px;&quot;&gt;\(TF_2\)&lt;/font&gt;" style="text;html=1;align=center;verticalAlign=middle;whiteSpace=wrap;rounded=0;strokeColor=default;" vertex="1" parent="1">
          <mxGeometry x="500" y="310" width="40" height="35" as="geometry" />
        </mxCell>
      </root>
    </mxGraphModel>
  </diagram>
</mxfile>
